<?xml version="1.0" standalone="no"?>
<!DOCTYPE svg PUBLIC "-//W3C//DTD SVG 20010904//EN"
 "http://www.w3.org/TR/2001/REC-SVG-20010904/DTD/svg10.dtd">
<svg version="1.0" xmlns="http://www.w3.org/2000/svg"
 width="950.000000pt" height="950.000000pt" viewBox="0 0 950.000000 950.000000"
 preserveAspectRatio="xMidYMid meet">
<metadata>
Created by potrace 1.14, written by Peter Selinger 2001-2017
</metadata>
<g transform="translate(0.000000,950.000000) scale(0.100000,-0.100000)"
fill="#000000" stroke="none">
<path d="M8470 9449 c-80 -27 -149 -51 -155 -53 -5 -2 -17 -5 -25 -9 -8 -3
-87 -29 -175 -58 -88 -29 -225 -74 -305 -101 -80 -27 -152 -51 -160 -53 -8 -2
-89 -29 -180 -60 -91 -32 -169 -58 -175 -60 -5 -1 -18 -5 -27 -8 -10 -4 -26
-10 -35 -14 -10 -3 -23 -7 -28 -8 -12 -3 -312 -103 -335 -112 -8 -4 -17 -7
-20 -8 -3 0 -63 -21 -135 -45 -71 -24 -133 -45 -137 -46 -5 -1 -10 -3 -13 -4
-3 -1 -8 -3 -12 -4 -45 -10 -280 -93 -285 -101 -4 -5 -8 -7 -8 -3 0 3 -33 -5
-72 -19 -40 -14 -77 -26 -83 -27 -5 -2 -17 -5 -25 -9 -54 -20 -356 -119 -372
-122 -11 -3 -26 -9 -34 -16 -8 -6 -14 -9 -14 -6 0 3 -69 -19 -154 -48 -85 -29
-157 -51 -160 -47 -3 3 -6 1 -6 -5 0 -5 -6 -10 -12 -10 -7 0 -87 -26 -178 -57
-91 -32 -169 -59 -175 -60 -18 -4 -300 -97 -320 -106 -11 -5 -171 -59 -355
-120 -184 -61 -342 -113 -350 -117 -8 -3 -21 -8 -28 -10 -6 -1 -18 -5 -25 -6
-6 -2 -19 -7 -27 -10 -16 -7 -305 -104 -330 -111 -28 -8 -325 -108 -345 -116
-11 -5 -65 -23 -120 -41 -55 -17 -149 -49 -210 -69 -60 -21 -139 -48 -175 -60
-35 -12 -68 -24 -73 -27 -5 -3 26 -18 69 -33 44 -15 131 -46 194 -70 63 -23
135 -48 160 -57 25 -8 59 -21 75 -28 17 -7 55 -21 85 -31 30 -10 59 -22 65
-26 5 -4 17 -8 27 -8 10 0 26 -4 36 -9 9 -5 43 -19 75 -30 31 -12 81 -30 110
-40 28 -11 86 -31 127 -46 41 -15 101 -38 133 -51 32 -13 65 -24 73 -24 8 0
14 -4 14 -10 0 -5 3 -9 8 -8 4 1 21 -4 37 -11 78 -32 250 -108 343 -152 56
-27 104 -48 106 -46 1 1 9 -3 17 -9 8 -7 50 -31 94 -54 44 -24 88 -50 99 -59
10 -9 19 -14 20 -12 2 8 192 -114 201 -130 3 -4 -7 -21 -22 -37 -32 -34 -121
-135 -143 -164 -8 -10 -33 -38 -55 -63 -22 -24 -56 -63 -75 -86 -19 -23 -48
-57 -65 -75 -16 -18 -50 -56 -75 -85 -25 -29 -65 -76 -90 -104 -24 -27 -51
-59 -60 -69 -8 -10 -29 -35 -47 -55 -18 -20 -41 -47 -53 -61 -12 -14 -43 -50
-69 -80 -27 -30 -68 -78 -92 -105 -65 -75 -161 -185 -184 -211 -11 -12 -34
-40 -51 -61 -18 -21 -48 -55 -68 -76 -20 -21 -36 -43 -36 -48 0 -6 -4 -7 -10
-4 -5 3 -10 2 -10 -4 0 -8 -59 -77 -340 -401 -26 -30 -69 -80 -95 -110 -26
-30 -54 -62 -62 -70 -7 -8 -24 -27 -36 -41 -12 -14 -47 -54 -77 -88 -30 -35
-68 -79 -85 -99 -16 -19 -46 -52 -65 -74 l-35 -38 1 1227 c0 676 -1 1233 -3
1239 -3 7 -292 10 -948 10 l-945 0 0 -3353 0 -3353 948 0 947 0 0 1321 c0 726
3 1326 7 1332 6 9 8 8 8 -1 0 -8 43 -77 95 -154 52 -76 95 -143 95 -149 0 -5
5 -9 10 -9 6 0 10 -6 10 -14 0 -8 3 -16 8 -18 10 -5 92 -127 92 -138 0 -6 5
-10 10 -10 6 0 10 -7 10 -15 0 -8 4 -15 8 -15 5 0 15 -12 23 -27 8 -16 21 -36
30 -46 9 -9 22 -30 30 -45 8 -15 17 -29 20 -32 6 -5 189 -277 219 -326 58 -93
475 -710 482 -712 4 -2 8 -8 8 -12 0 -11 262 -404 273 -408 4 -2 7 -7 7 -12 0
-7 117 -189 130 -200 3 -3 43 -63 90 -135 46 -72 93 -140 104 -153 l19 -22
1139 0 c626 0 1138 2 1138 6 0 8 -184 279 -192 282 -5 2 -8 7 -8 12 0 5 -28
50 -62 100 -35 51 -71 106 -82 124 -10 17 -21 33 -25 36 -4 3 -18 23 -31 45
-13 22 -30 46 -37 53 -8 8 -21 28 -30 45 -9 18 -19 34 -22 37 -4 3 -89 129
-191 280 -101 151 -187 277 -192 278 -4 2 -8 8 -8 13 0 12 -121 193 -132 197
-4 2 -8 8 -8 12 0 5 -27 49 -60 97 -33 48 -64 95 -70 103 -33 49 -267 400
-275 412 -105 160 -340 504 -347 506 -4 2 -8 8 -8 13 0 8 -76 127 -90 139 -3
3 -11 17 -19 33 -8 15 -18 27 -23 27 -4 0 -8 5 -8 10 0 6 -18 35 -40 65 -22
30 -40 58 -40 63 0 4 -8 17 -17 28 -10 10 -73 101 -139 200 l-121 181 26 31
c14 16 44 52 66 77 22 26 45 53 50 59 6 6 53 61 105 121 51 61 101 117 109
126 9 8 34 37 56 63 22 26 54 63 72 83 18 19 51 58 75 85 52 62 106 124 133
154 11 12 36 41 55 64 19 23 51 59 70 80 20 21 50 56 68 78 19 22 45 53 58 69
14 15 44 50 67 77 23 27 56 63 72 81 17 18 50 57 75 86 25 30 55 64 68 77 12
13 22 25 22 27 0 3 8 13 18 23 24 26 94 104 144 164 24 28 54 63 68 78 14 14
42 46 62 71 20 24 53 62 73 84 l36 40 47 -51 c186 -203 462 -617 664 -994 83
-155 116 -217 159 -300 24 -47 46 -87 49 -90 3 -3 25 -45 50 -93 83 -164 104
-202 112 -205 4 -2 8 -12 8 -23 0 -10 5 -19 10 -19 6 0 10 -9 10 -19 0 -11 4
-21 8 -23 4 -2 20 -28 36 -58 63 -125 86 -164 87 -152 1 6 2 15 3 20 1 4 8 41
16 82 8 41 14 77 15 80 1 3 5 25 9 50 5 25 10 54 12 65 3 11 7 36 10 55 3 19
10 54 15 78 5 23 12 59 15 80 3 20 9 55 14 77 5 22 11 56 15 75 3 19 10 58 15
85 5 28 12 64 15 80 13 67 16 81 20 105 3 14 8 39 10 55 3 17 8 41 10 55 10
47 13 67 19 106 4 22 8 46 11 54 2 8 6 32 10 54 3 21 7 41 9 45 3 4 7 27 10
51 3 25 10 68 16 95 6 28 12 64 15 80 2 17 8 44 11 60 8 33 14 70 17 100 2 11
6 26 10 33 5 6 6 12 4 12 -2 0 0 19 4 43 5 23 11 55 14 70 2 15 9 54 15 85 11
58 13 66 25 137 3 22 9 49 12 60 3 11 7 31 8 45 4 35 22 125 25 125 1 0 3 11
5 25 1 14 5 38 8 54 4 16 10 50 14 75 8 51 10 60 12 64 2 1 4 13 6 27 2 14 8
52 15 85 6 33 13 71 16 85 6 34 42 226 50 270 3 19 7 40 8 45 2 6 6 30 10 55
11 66 14 85 16 85 1 0 3 9 5 20 1 11 5 36 9 55 4 19 11 60 16 90 6 30 12 65
15 78 3 12 7 31 9 41 3 11 8 41 12 68 7 48 9 62 19 106 3 12 8 37 11 56 3 18
8 43 10 55 2 11 9 48 14 81 6 33 18 94 26 135 9 41 17 86 19 100 2 14 6 34 8
45 3 11 8 40 12 65 4 25 9 54 12 65 9 45 53 279 60 320 2 17 16 86 29 155 14
69 27 139 29 155 2 17 7 44 10 60 12 61 15 81 21 115 3 19 7 42 9 50 2 8 7 31
10 50 3 19 11 55 16 79 5 24 7 46 5 49 -3 2 -1 12 4 22 5 9 11 32 14 51 2 19
7 45 10 59 4 14 8 39 11 55 2 17 7 41 9 55 3 13 8 42 11 65 4 22 10 56 15 75
8 32 18 86 25 136 2 11 8 45 14 75 15 70 19 92 31 161 6 32 13 70 16 85 3 16
6 37 8 48 2 11 7 35 10 53 3 17 5 32 4 32 -2 0 -68 -23 -148 -51z"/>
</g>
</svg>
