<svg xmlns="http://www.w3.org/2000/svg" width="387.75" height="210.463" viewBox="0 0 387.75 210.463">
  <g id="그룹_137" data-name="그룹 137" transform="translate(-465 -287.537)">
    <g id="그룹_62" data-name="그룹 62" transform="translate(443.28 319.079)">
      <g id="그룹_33" data-name="그룹 33" transform="translate(21.72 32.458)">
        <path id="패스_23" data-name="패스 23" d="M168.183,105.689A73.061,73.061,0,0,1,157.47,143.86c-1.178,1.932-2.45,3.786-3.786,5.592-.99,1.319-2.011,2.592-3.095,3.833a74.558,74.558,0,0,1-9.268,9.1c-1.1.9-2.231,1.775-3.393,2.608q-.942.707-1.932,1.367c-1.131.754-2.278,1.492-3.456,2.183-.22.157-.456.283-.69.424s-.489.283-.74.424a70.416,70.416,0,0,1-7.241,3.6,71.791,71.791,0,0,1-16.572,4.885c-.644.126-1.271.22-1.916.314-1.634.236-3.281.408-4.946.534-.174.016-.347.031-.52.031-1.147.079-2.325.126-3.5.141-.485.031-.974.031-1.459.031a73.608,73.608,0,0,1-17.171-2.026,74.871,74.871,0,0,1-22.3-9.519c-1.117-.707-2.216-1.461-3.3-2.246-1.272-.911-2.512-1.869-3.723-2.89a71.474,71.474,0,0,1-8.781-8.53c-.6-.691-1.178-1.382-1.744-2.089q-.919-1.131-1.791-2.309c-.251-.33-.485-.644-.723-.974a71.9,71.9,0,0,1-5.231-8.467c-.627-1.162-1.208-2.356-1.759-3.55a73.234,73.234,0,1,1,139.755-30.631Z" transform="translate(-21.72 -32.458)" fill="#eff1f4"/>
      </g>
      <g id="그룹_34" data-name="그룹 34" transform="translate(37.879 112.526)">
        <path id="패스_24" data-name="패스 24" d="M132.057,135.892q-.942.707-1.932,1.367c-1.351.911-2.733,1.791-4.145,2.608a72.792,72.792,0,0,1-26.47,9.221c-.456.063-.911.126-1.382.173a68.059,68.059,0,0,1-7.446.534H90.54c-.485.031-.974.031-1.459.031A73.608,73.608,0,0,1,71.91,147.8a72.842,72.842,0,0,1-22.3-9.519,65.735,65.735,0,0,1-7.023-5.137,71.474,71.474,0,0,1-8.781-8.53c-.6-.691-1.178-1.382-1.744-2.089-.927-12.551,10.886-24.646,12.991-27.112,6.77-8.011,25.808-12.472,44.5-11.938,0,0,25.461-.094,36.064,11.231C130.282,99.684,131.837,117.435,132.057,135.892Z" transform="translate(-32.007 -83.431)" fill="#92b4ea"/>
      </g>
      <g id="그룹_35" data-name="그룹 35" transform="translate(30.188 122.351)">
        <path id="패스_25" data-name="패스 25" d="M50.061,89.685,49.1,132.466c-1.272-.911-2.513-1.869-3.723-2.89a71.473,71.473,0,0,1-8.781-8.53c-.6-.691-1.178-1.382-1.744-2.089q-.919-1.131-1.791-2.309c-.251-.33-.487-.644-.724-.974a71.887,71.887,0,0,1-5.229-8.467C36.464,98.24,50.061,89.685,50.061,89.685Z" transform="translate(-27.111 -89.685)" fill="#92b4ea"/>
      </g>
      <g id="그룹_36" data-name="그룹 36" transform="translate(114.777 124.508)">
        <path id="패스_26" data-name="패스 26" d="M116.774,119.835a74.558,74.558,0,0,1-9.268,9.1c-1.1.9-2.231,1.775-3.393,2.608q-.942.707-1.932,1.367c-.3.2-.611.408-.91.6-.379.251-.756.5-1.133.723-.691.456-1.4.88-2.1,1.288a70.373,70.373,0,0,1-7.981,4.021l-9.093-7.493L98.3,91.058Z" transform="translate(-80.961 -91.058)" fill="#92b4ea"/>
      </g>
      <g id="그룹_40" data-name="그룹 40" transform="translate(80.272 99.32)">
        <g id="그룹_39" data-name="그룹 39" transform="translate(0)">
          <g id="그룹_38" data-name="그룹 38">
            <g id="그룹_37" data-name="그룹 37">
              <path id="패스_27" data-name="패스 27" d="M60.187,75.023,58.995,89.718s1,4.455,10.614,6.027a12.505,12.505,0,0,0,11.07-3.151l-.121-3.171-.328-8.251L63.067,75.909Z" transform="translate(-58.995 -75.023)" fill="#ffccc0"/>
            </g>
          </g>
        </g>
      </g>
      <g id="그룹_44" data-name="그룹 44" transform="translate(84.344 100.206)">
        <g id="그룹_43" data-name="그룹 43">
          <g id="그룹_42" data-name="그룹 42">
            <g id="그룹_41" data-name="그룹 41">
              <path id="패스_28" data-name="패스 28" d="M61.587,75.587a5.418,5.418,0,0,0,.352,1.635c3.03,8.564,13,11.167,17.139,11.878l-.328-8.251Z" transform="translate(-61.587 -75.587)"/>
            </g>
          </g>
        </g>
      </g>
      <g id="그룹_48" data-name="그룹 48" transform="translate(70.485 61.114)">
        <g id="그룹_47" data-name="그룹 47" transform="translate(0)">
          <g id="그룹_46" data-name="그룹 46">
            <g id="그룹_45" data-name="그룹 45">
              <path id="패스_29" data-name="패스 29" d="M90.534,57.649s7,21.445,2.641,32.69-14.712,8.407-20.8,5.564a20.955,20.955,0,0,1-8.635-6.993,8.927,8.927,0,0,1-9.488-4.428c-3.407-5.854-.374-11.905,3.126-13.02s7.262,1.7,7.262,1.7l-2.554-6.282S78.208,37.766,90.534,57.649Z" transform="translate(-52.765 -50.701)" fill="#ffccc0"/>
            </g>
          </g>
        </g>
      </g>
      <g id="그룹_49" data-name="그룹 49" transform="translate(103.156 84.002)">
        <path id="패스_30" data-name="패스 30" d="M75.25,75.512a.794.794,0,0,1-.308-.063.786.786,0,0,1-.415-1.03c1.533-3.6-.84-7.936-.864-7.98a.785.785,0,1,1,1.37-.767c.115.2,2.779,5.05.939,9.362A.786.786,0,0,1,75.25,75.512Z" transform="translate(-73.563 -65.272)"/>
      </g>
      <g id="그룹_50" data-name="그룹 50" transform="translate(74.961 85.347)">
        <path id="패스_31" data-name="패스 31" d="M61.213,73.877a.628.628,0,0,1-.5-.245l-4.972-6.5a.625.625,0,0,1,.993-.76l4.972,6.5a.624.624,0,0,1-.116.877A.613.613,0,0,1,61.213,73.877Z" transform="translate(-55.614 -66.128)"/>
      </g>
      <g id="그룹_51" data-name="그룹 51" transform="translate(74.186 89.46)">
        <path id="패스_32" data-name="패스 32" d="M55.745,70.185a.626.626,0,0,1-.03-1.25l3.924-.185a.6.6,0,0,1,.655.6.625.625,0,0,1-.6.653l-3.924.185Z" transform="translate(-55.12 -68.746)"/>
      </g>
      <g id="그룹_52" data-name="그룹 52" transform="translate(95.443 80.155)">
        <path id="패스_33" data-name="패스 33" d="M69.531,68.275a.785.785,0,0,1-.785-.767l-.093-3.881a.786.786,0,0,1,1.571-.038l.093,3.883a.785.785,0,0,1-.767.8Z" transform="translate(-68.653 -62.823)"/>
      </g>
      <g id="그룹_53" data-name="그룹 53" transform="translate(106.837 80.422)">
        <path id="패스_34" data-name="패스 34" d="M76.858,68.444a.786.786,0,0,1-.784-.752l-.167-3.878a.784.784,0,0,1,.751-.818.776.776,0,0,1,.818.751l.167,3.878a.784.784,0,0,1-.751.818Z" transform="translate(-75.907 -62.993)"/>
      </g>
      <g id="그룹_54" data-name="그룹 54" transform="translate(93.64 75.421)">
        <path id="패스_35" data-name="패스 35" d="M68.29,62.713a.785.785,0,0,1-.646-1.233c1.8-2.595,5.217-1.407,5.361-1.356a.785.785,0,0,1-.526,1.48c-.1-.036-2.433-.833-3.544.771A.784.784,0,0,1,68.29,62.713Z" transform="translate(-67.505 -59.809)"/>
      </g>
      <g id="그룹_55" data-name="그룹 55" transform="translate(104.77 75.157)">
        <path id="패스_36" data-name="패스 36" d="M79.23,62.791a.787.787,0,0,1-.669-.372,2.79,2.79,0,0,0-1.508-1.183,1.559,1.559,0,0,0-1.224.328.785.785,0,1,1-.9-1.283,3.105,3.105,0,0,1,2.452-.581A4.327,4.327,0,0,1,79.9,61.6a.785.785,0,0,1-.669,1.2Z" transform="translate(-74.591 -59.641)"/>
      </g>
      <g id="그룹_56" data-name="그룹 56" transform="translate(69.184 55.896)">
        <path id="패스_37" data-name="패스 37" d="M91.007,59.547,89.681,57.61a15.8,15.8,0,0,1-5.253,1.882,53.718,53.718,0,0,1-12.1.867s1.1,1.594.845,7.331c-.251,5.755-6.222,8.96-6.222,8.96a18.816,18.816,0,0,0-5.356-2.761,11.448,11.448,0,0,0-1.748-.363c-3.445-.338-4.727,1.788-4.727,1.788s-7.925-12.631,1.244-21.707c6.429-6.337,15.036-5.931,19.6-5.113a25.541,25.541,0,0,1,3.019.73l.162.046s13.726-3.256,16.01-1.221C97.434,50.065,92.653,59.631,91.007,59.547Z" transform="translate(-51.936 -47.379)"/>
      </g>
      <g id="그룹_57" data-name="그룹 57" transform="translate(96.779 95.144)">
        <path id="패스_38" data-name="패스 38" d="M73.037,77.346a4.448,4.448,0,0,1-1.7-.336A2.83,2.83,0,0,1,69.7,75.45a3.635,3.635,0,0,1,.121-2.625.787.787,0,0,1,1.065-.379l5.126,2.548a.787.787,0,0,1,.124,1.329A5.584,5.584,0,0,1,73.037,77.346Zm-1.959-3.052a1.413,1.413,0,0,0,.088.583,1.268,1.268,0,0,0,.762.679,3.053,3.053,0,0,0,1.927.119Z" transform="translate(-69.504 -72.365)"/>
      </g>
      <g id="그룹_58" data-name="그룹 58" transform="translate(91.104 120.753)">
        <path id="패스_39" data-name="패스 39" d="M78.786,146.27a68.059,68.059,0,0,1-7.446.534L65.891,88.668l5.355,1.4Z" transform="translate(-65.891 -88.668)" fill="#a2c5f9"/>
      </g>
      <g id="그룹_59" data-name="그룹 59" transform="translate(80.272 113.254)">
        <path id="패스_40" data-name="패스 40" d="M80.909,83.894s6.241,17.346,4.42,17.089S72.294,91.8,72.294,91.8s-7.34,10.1-9.9,10.286-3.4-18.071-3.4-18.071,1.937,5.162,11.5,6.037S80.909,83.894,80.909,83.894Z" transform="translate(-58.995 -83.894)" fill="#e6f4ff"/>
      </g>
      <g id="그룹_61" data-name="그룹 61" transform="translate(124.83 139.082)">
        <g id="그룹_60" data-name="그룹 60" transform="translate(0 0)">
          <path id="패스_41" data-name="패스 41" d="M95.072,129.792c-.22.157-.456.283-.69.424s-.489.283-.74.424l-6.268-29.359a.8.8,0,0,1,.614-.927.774.774,0,0,1,.925.6Z" transform="translate(-87.361 -100.336)" fill="#e6f4ff"/>
        </g>
      </g>
    </g>
    <g id="그룹_100" data-name="그룹 100" transform="translate(442.011 133.981)">
      <g id="그룹_63" data-name="그룹 63" transform="translate(145.76 153.556)">
        <path id="패스_42" data-name="패스 42" d="M292.218,226.784a72.842,72.842,0,0,1-9.849,36.693c-.237.408-.487.817-.74,1.225-.581.974-1.192,1.948-1.838,2.89-.265.393-.532.785-.831,1.178a73.188,73.188,0,0,1-40.148,28.525c-.347.094-.707.189-1.054.283a73.265,73.265,0,0,1-79.511-29.923c-1.239-1.806-2.386-3.691-3.44-5.608a73.23,73.23,0,1,1,137.41-35.263Z" transform="translate(-145.76 -153.556)" fill="#eff1f4"/>
      </g>
      <g id="그룹_65" data-name="그룹 65" transform="translate(181.517 174.041)">
        <g id="그룹_64" data-name="그룹 64">
          <path id="패스_43" data-name="패스 43" d="M260.736,234.282c.251,37.384-36.96,31.1-36.96,31.1L188.544,251.45s-35.295-18.66-12.158-40.258c0,0-8.089-36.331,20.561-43.62a3.414,3.414,0,0,1,.377-.11c.942-.22,1.853-.408,2.733-.534,26.53-4.115,28.807,31.588,28.807,31.588S260.532,204.375,260.736,234.282Z" transform="translate(-168.524 -166.598)"/>
        </g>
      </g>
      <g id="그룹_67" data-name="그룹 67" transform="translate(158.249 234.168)">
        <g id="그룹_66" data-name="그룹 66">
          <path id="패스_44" data-name="패스 44" d="M274.423,239.486a73.188,73.188,0,0,1-40.148,28.525c-.346.094-.707.188-1.052.283a73.218,73.218,0,0,1-18.772,2.435,76.558,76.558,0,0,1-8.952-.534c-2.466-.314-4.9-.738-7.288-1.272a73.1,73.1,0,0,1-44.5-30.551c9.833-13.446,22.162-23.624,30.551-27.237,12.409-5.341,32.09-8.922,50.264-3.723.046.016.11.016.173.031a55.062,55.062,0,0,1,15.723,7.273A79.032,79.032,0,0,1,274.423,239.486Z" transform="translate(-153.711 -204.877)" fill="#6876aa"/>
        </g>
      </g>
      <g id="그룹_72" data-name="그룹 72" transform="translate(205.627 220.022)">
        <g id="그룹_71" data-name="그룹 71">
          <g id="그룹_70" data-name="그룹 70">
            <g id="그룹_69" data-name="그룹 69">
              <g id="그룹_68" data-name="그룹 68">
                <path id="패스_45" data-name="패스 45" d="M183.874,199.776l0,.426.357,8.016.256,6.285s1.081,2.521,8.4,2.047c9.8-.674,11.347-5.945,11.347-5.945l.418-14.732-2.972.565Z" transform="translate(-183.874 -195.871)" fill="#ffbdae"/>
              </g>
            </g>
          </g>
        </g>
      </g>
      <g id="그룹_77" data-name="그룹 77" transform="translate(205.631 220.619)">
        <g id="그룹_76" data-name="그룹 76">
          <g id="그룹_75" data-name="그룹 75">
            <g id="그룹_74" data-name="그룹 74">
              <g id="그룹_73" data-name="그룹 73">
                <path id="패스_46" data-name="패스 46" d="M183.876,199.985l.357,8.016c4.766-.58,13.438-2.642,16.941-10.136a6.131,6.131,0,0,0,.506-1.613l-17.773,3.611Z" transform="translate(-183.876 -196.251)"/>
              </g>
            </g>
          </g>
        </g>
      </g>
      <g id="그룹_82" data-name="그룹 82" transform="translate(195.975 179.921)">
        <g id="그룹_81" data-name="그룹 81">
          <g id="그룹_80" data-name="그룹 80">
            <g id="그룹_79" data-name="그룹 79">
              <g id="그룹_78" data-name="그룹 78">
                <path id="패스_47" data-name="패스 47" d="M184.276,176.409s-9.118,20.87-5.834,32.6,13.969,9.88,20.36,7.612a21.16,21.16,0,0,0,9.358-6.186,9.009,9.009,0,0,0,9.963-3.528c3.994-5.551,1.535-11.927-1.874-13.389s-7.463,1-7.463,1l3.178-6.065S198.6,157.626,184.276,176.409Z" transform="translate(-177.729 -170.341)" fill="#ffbdae"/>
              </g>
            </g>
          </g>
        </g>
      </g>
      <g id="그룹_84" data-name="그룹 84" transform="translate(205.345 175.603)">
        <g id="그룹_83" data-name="그룹 83">
          <path id="패스_48" data-name="패스 48" d="M183.7,174.888a17.379,17.379,0,0,0,10.51,16.15c11.171,5.045,18.634,4.045,18.634,4.045L212.12,180.6l-15.166-13.01-11.319,1.8Z" transform="translate(-183.694 -167.592)"/>
        </g>
      </g>
      <g id="그룹_86" data-name="그룹 86" transform="translate(226.277 200.892)">
        <g id="그룹_85" data-name="그룹 85">
          <path id="패스_49" data-name="패스 49" d="M197.021,183.692l.042,6.323,5.625-5.547Z" transform="translate(-197.021 -183.692)"/>
        </g>
      </g>
      <g id="그룹_88" data-name="그룹 88" transform="translate(237.759 236.648)">
        <g id="그룹_87" data-name="그룹 87">
          <path id="패스_50" data-name="패스 50" d="M248.2,234.51c-.581.974-1.192,1.948-1.838,2.89-.265.393-.532.785-.831,1.178A73.188,73.188,0,0,1,205.384,267.1c-.347.094-.707.189-1.054.283l1.005-60.929s.11.016.3.047c.049.016.112.016.173.031,3.613.613,27.284,5.293,39.993,23.922A37.5,37.5,0,0,1,248.2,234.51Z" transform="translate(-204.33 -206.456)" fill="#6876aa"/>
        </g>
      </g>
      <g id="그룹_89" data-name="그룹 89" transform="translate(199.144 190.774)">
        <path id="패스_51" data-name="패스 51" d="M180.531,180.123a.785.785,0,0,1-.234-1.535l4.159-1.3a.785.785,0,0,1,.47,1.5l-4.159,1.3A.774.774,0,0,1,180.531,180.123Z" transform="translate(-179.746 -177.25)"/>
      </g>
      <g id="그룹_90" data-name="그룹 90" transform="translate(226.675 206.379)">
        <path id="패스_52" data-name="패스 52" d="M198.058,194.677a.786.786,0,0,1-.531-1.363l6.434-5.92a.785.785,0,1,1,1.063,1.155l-6.434,5.922A.777.777,0,0,1,198.058,194.677Z" transform="translate(-197.273 -187.185)"/>
      </g>
      <g id="그룹_91" data-name="그룹 91" transform="translate(229.353 209.836)">
        <path id="패스_53" data-name="패스 53" d="M203.6,192.642a.807.807,0,0,1-.316-.066l-3.84-1.685a.786.786,0,0,1,.633-1.439l3.84,1.685a.786.786,0,0,1-.317,1.5Z" transform="translate(-198.979 -189.386)"/>
      </g>
      <g id="그룹_92" data-name="그룹 92" transform="translate(199.519 196.524)">
        <path id="패스_54" data-name="패스 54" d="M181.682,188.561a.8.8,0,0,1-.16-.017.784.784,0,0,1-.609-.928l.763-3.677-1.5-1.726a.785.785,0,1,1,1.186-1.029l1.753,2.02a.778.778,0,0,1,.176.674l-.842,4.057A.785.785,0,0,1,181.682,188.561Z" transform="translate(-179.985 -180.911)"/>
      </g>
      <g id="그룹_93" data-name="그룹 93" transform="translate(212.103 197.165)">
        <path id="패스_55" data-name="패스 55" d="M189.692,188.968a.807.807,0,0,1-.16-.017.786.786,0,0,1-.609-.928l.762-3.677-1.5-1.726a.786.786,0,1,1,1.188-1.029l1.751,2.018a.787.787,0,0,1,.176.675l-.842,4.057A.786.786,0,0,1,189.692,188.968Z" transform="translate(-187.996 -181.319)"/>
      </g>
      <g id="그룹_94" data-name="그룹 94" transform="translate(202.586 202.273)">
        <path id="패스_56" data-name="패스 56" d="M183.055,195.635a.783.783,0,0,1-.767-.624c-1.4-6.691,1.844-10.065,1.982-10.207a.785.785,0,0,1,1.118,1.1c-.132.138-2.777,2.983-1.564,8.782a.785.785,0,0,1-.608.93A.807.807,0,0,1,183.055,195.635Z" transform="translate(-181.938 -184.571)"/>
      </g>
      <g id="그룹_95" data-name="그룹 95" transform="translate(206.425 214.085)">
        <path id="패스_57" data-name="패스 57" d="M188.443,197.764c-.451,0-1.528-.209-3.762-2.68a1.135,1.135,0,0,1-.258-1.07,1.193,1.193,0,0,1,.822-.812c5.37-1.608,6.083-1.073,6.424-.815a1.449,1.449,0,0,1,.385,1.722c-.364,1.225-2.044,3.553-3.476,3.649C188.541,197.761,188.5,197.764,188.443,197.764Zm-2.133-3.237c1.162,1.2,1.934,1.662,2.168,1.663.553-.075,1.905-1.777,2.092-2.557A19.842,19.842,0,0,0,186.309,194.527Z" transform="translate(-184.382 -192.091)"/>
      </g>
      <g id="그룹_97" data-name="그룹 97" transform="translate(175.601 263.031)">
        <g id="그룹_96" data-name="그룹 96">
          <path id="패스_58" data-name="패스 58" d="M172.673,224.577c-.082.093-7.584,8.136-6.159,22.6-.451-.291-.886-.6-1.321-.917-.124-.082-.232-.178-.357-.273-.922-14.358,6.611-22.386,6.707-22.495a.807.807,0,0,1,1.115-.028A.792.792,0,0,1,172.673,224.577Z" transform="translate(-164.758 -223.252)" fill="#92b4ea"/>
        </g>
      </g>
      <g id="그룹_98" data-name="그룹 98" transform="translate(202.748 242.027)">
        <path id="패스_59" data-name="패스 59" d="M194.905,209.88l-5.576,57.458c-2.466-.314-4.9-.738-7.288-1.272l7.634-54.866Z" transform="translate(-182.041 -209.88)" fill="#92b4ea"/>
      </g>
      <g id="그룹_99" data-name="그룹 99" transform="translate(200.17 234.652)">
        <path id="패스_60" data-name="패스 60" d="M186.341,205.928s-7.447,16.482-5.666,16.223,12.756-9.181,12.756-9.181,7.185,10.1,9.69,10.285,3.324-18.07,3.324-18.07-1.9,5.163-11.25,6.038S186.341,205.928,186.341,205.928Z" transform="translate(-180.4 -205.185)" fill="#e6f4ff"/>
      </g>
    </g>
    <g id="그룹_135" data-name="그룹 135" transform="translate(194.911 205.063)">
      <g id="그룹_101" data-name="그룹 101" transform="translate(518.089 153.202)">
        <path id="패스_61" data-name="패스 61" d="M657.839,223.07A69.52,69.52,0,0,1,646.914,260.6q-1.844,2.877-3.942,5.575a70.442,70.442,0,0,1-15.166,14.3c-.629.435-1.274.869-1.918,1.289a70.448,70.448,0,0,1-11.195,5.89c-1.034.42-2.068.824-3.117,1.2a69.57,69.57,0,0,1-23.6,4.091c-.539,0-1.094,0-1.648-.015a69.57,69.57,0,0,1-43.1-16.2c-.3-.24-.615-.51-.914-.764a70.091,70.091,0,0,1-5.86-5.695c-.24-.255-.464-.51-.689-.779A69.864,69.864,0,1,1,657.839,223.07Z" transform="translate(-518.089 -153.202)" fill="#eff1f4"/>
      </g>
      <g id="그룹_102" data-name="그룹 102" transform="translate(535.758 232.661)">
        <path id="패스_62" data-name="패스 62" d="M560.542,263.111a69.478,69.478,0,0,1-23.2-12.829c-.3-.24-.615-.51-.914-.764a70.071,70.071,0,0,1-5.86-5.695c-.24-.255-.465-.51-.689-.779,7.044-20.517,18.748-36.867,32.236-36.822C578.945,206.357,570.178,237.979,560.542,263.111Z" transform="translate(-529.879 -206.222)" fill="#40507f"/>
      </g>
      <g id="그룹_103" data-name="그룹 103" transform="translate(584.664 190.425)">
        <path id="패스_63" data-name="패스 63" d="M574.621,178.782s20-5.382,34.875,12.838,5.63,40.644-17.936,40-29.049-24.729-29.049-24.729Z" transform="translate(-562.512 -178.04)"/>
      </g>
      <g id="그룹_104" data-name="그룹 104" transform="translate(543.222 230.167)">
        <path id="패스_64" data-name="패스 64" d="M617.525,256.148a70.443,70.443,0,0,1-11.195,5.89c-1.034.42-2.068.824-3.117,1.2a69.57,69.57,0,0,1-23.6,4.091c-.539,0-1.094,0-1.648-.015a69.485,69.485,0,0,1-43.1-16.2c1.409-15.736,3.312-28.385,5.845-32.026,5.32-7.658,11.57-10.476,18.928-12.034,3.927-.809,8.078-1.244,12.574-1.888a90.983,90.983,0,0,1,21.641.09h.09c6.954.809,13.113,2.233,16.38,3.837C613.029,210.409,615.637,231.48,617.525,256.148Z" transform="translate(-534.859 -204.558)" fill="#40507f"/>
      </g>
      <g id="그룹_105" data-name="그룹 105" transform="translate(563.512 210.257)">
        <path id="패스_65" data-name="패스 65" d="M555.926,199.029c-.836,3.822-3.131,6.566-5.125,6.128s-2.933-3.888-2.1-7.709,3.132-6.566,5.125-6.13S556.762,195.207,555.926,199.029Z" transform="translate(-548.398 -191.273)" fill="#92b4ea"/>
      </g>
      <g id="그룹_106" data-name="그룹 106" transform="translate(598.717 230.816)">
        <path id="패스_66" data-name="패스 66" d="M616.144,240.346a70.376,70.376,0,0,1-28.28,21.476c-1.034.42-2.068.824-3.117,1.2l-12.859-57.983a29.979,29.979,0,0,1,3.492,0h.09C582.5,205.427,602.237,205.157,616.144,240.346Z" transform="translate(-571.889 -204.991)" fill="#40507f"/>
      </g>
      <g id="그룹_107" data-name="그룹 107" transform="translate(562.254 173.456)">
        <path id="패스_67" data-name="패스 67" d="M552.053,199.422a19.667,19.667,0,0,1-4.267-15.612c.964-6.485,3.8-8.632,3.8-8.632s-4.551-8.739,8.5-8.455,23.748-.83,29.564,10.4c3.426,6.615,2.062,20.983,2.062,20.983Z" transform="translate(-547.559 -166.716)"/>
      </g>
      <g id="그룹_111" data-name="그룹 111" transform="translate(574.151 216.357)">
        <g id="그룹_110" data-name="그룹 110">
          <g id="그룹_109" data-name="그룹 109">
            <g id="그룹_108" data-name="그룹 108">
              <path id="패스_68" data-name="패스 68" d="M576.934,195.343l-.093,15.929s-2.9,4.562-12.222,5.266c-6.946.523-9.122-3.054-9.122-3.054l1.762-13.93,16.848-3.6Z" transform="translate(-555.497 -195.343)" fill="#ffc1b3"/>
            </g>
          </g>
        </g>
      </g>
      <g id="그룹_115" data-name="그룹 115" transform="translate(574.912 215.386)">
        <g id="그룹_114" data-name="그룹 114">
          <g id="그룹_113" data-name="그룹 113">
            <g id="그룹_112" data-name="그룹 112">
              <path id="패스_69" data-name="패스 69" d="M576.662,194.7a5.26,5.26,0,0,1-.472,1.535c-3.612,7.935-16.174,11.174-20.185,11.51l1-7.862Z" transform="translate(-556.005 -194.695)"/>
            </g>
          </g>
        </g>
      </g>
      <g id="그룹_119" data-name="그룹 119" transform="translate(566.593 178.382)">
        <g id="그룹_118" data-name="그룹 118">
          <g id="그룹_117" data-name="그룹 117">
            <g id="그룹_116" data-name="그룹 116">
              <path id="패스_70" data-name="패스 70" d="M556.434,175.861s-8.476,19.923-5.245,31.039,13.368,9.263,19.424,7.05a20.116,20.116,0,0,0,8.839-5.966,8.567,8.567,0,0,0,9.439-3.445c3.745-5.314,1.349-11.352-1.9-12.71s-7.086,1.019-7.086,1.019l2.966-5.794S569.875,157.874,556.434,175.861Z" transform="translate(-550.454 -170.004)" fill="#ffc1b3"/>
            </g>
          </g>
        </g>
      </g>
      <g id="그룹_123" data-name="그룹 123" transform="translate(569.681 175.6)">
        <g id="그룹_122" data-name="그룹 122">
          <g id="그룹_121" data-name="그룹 121">
            <g id="그룹_120" data-name="그룹 120">
              <path id="패스_71" data-name="패스 71" d="M578.872,193.772s-8.5,1.887-14.6-7.492-5.639-13.287-5.639-13.287l-5.716,9.912s-1.451-6.768,1.184-11.153,5.473-3.54,5.473-3.54l18.9,4.337,5.242,14.981Z" transform="translate(-552.514 -168.147)"/>
            </g>
          </g>
        </g>
      </g>
      <g id="그룹_124" data-name="그룹 124" transform="translate(572.634 199.844)">
        <path id="패스_72" data-name="패스 72" d="M555.573,194.037a.753.753,0,0,1-.713-.517c-1.4-4.274,1.551-8.683,1.678-8.869a.749.749,0,0,1,1.24.842c-.028.039-2.662,3.994-1.491,7.561a.75.75,0,0,1-.481.946A.738.738,0,0,1,555.573,194.037Z" transform="translate(-554.485 -184.324)"/>
      </g>
      <g id="그룹_125" data-name="그룹 125" transform="translate(596.275 203.337)">
        <path id="패스_73" data-name="패스 73" d="M571.009,193.95a.748.748,0,0,1-.553-1.254l5.295-5.8a.749.749,0,0,1,1.106,1.012l-5.295,5.8A.745.745,0,0,1,571.009,193.95Z" transform="translate(-570.26 -186.655)"/>
      </g>
      <g id="그룹_126" data-name="그룹 126" transform="translate(598.218 207.008)">
        <path id="패스_74" data-name="패스 74" d="M576.043,191.106a.778.778,0,0,1-.1-.006l-3.736-.5a.749.749,0,0,1,.2-1.485l3.736.5a.749.749,0,0,1-.1,1.491Z" transform="translate(-571.556 -189.104)"/>
      </g>
      <g id="그룹_127" data-name="그룹 127" transform="translate(568.841 191.204)">
        <path id="패스_75" data-name="패스 75" d="M552.7,180.739a.749.749,0,0,1-.141-1.485l3.511-.68a.759.759,0,0,1,.878.593.751.751,0,0,1-.594.878l-3.511.68A.766.766,0,0,1,552.7,180.739Z" transform="translate(-551.954 -178.56)"/>
      </g>
      <g id="그룹_128" data-name="그룹 128" transform="translate(577.694 191.102)">
        <path id="패스_76" data-name="패스 76" d="M564.444,182.8a.738.738,0,0,1-.325-.075l-5.833-2.814a.748.748,0,1,1,.649-1.349l5.834,2.814a.749.749,0,0,1-.325,1.424Z" transform="translate(-557.861 -178.491)"/>
      </g>
      <g id="그룹_129" data-name="그룹 129" transform="translate(568.903 195.103)">
        <path id="패스_77" data-name="패스 77" d="M552.84,187.584a.764.764,0,0,1-.207-.028.749.749,0,0,1-.514-.926l.919-3.216-.865-1.019a.749.749,0,0,1,1.142-.971l1.126,1.325a.752.752,0,0,1,.15.692l-1.031,3.6A.749.749,0,0,1,552.84,187.584Z" transform="translate(-551.995 -181.161)"/>
      </g>
      <g id="그룹_130" data-name="그룹 130" transform="translate(578.514 195.451)">
        <path id="패스_78" data-name="패스 78" d="M559.68,188.237a.763.763,0,0,1-.207-.029.75.75,0,0,1-.514-.926l.919-3.206-1.28-1.436a.749.749,0,1,1,1.118-1l1.554,1.744a.741.741,0,0,1,.162.7l-1.033,3.6A.747.747,0,0,1,559.68,188.237Z" transform="translate(-558.408 -181.393)"/>
      </g>
      <g id="그룹_131" data-name="그룹 131" transform="translate(574.809 210.257)">
        <path id="패스_79" data-name="패스 79" d="M557.73,195.744a2.96,2.96,0,0,1-1.391-.331.749.749,0,1,1,.694-1.328c1.542.8,4.379-1.65,5.25-2.576a.749.749,0,1,1,1.091,1.027C563.019,192.914,560.273,195.744,557.73,195.744Z" transform="translate(-555.936 -191.273)"/>
      </g>
      <g id="그룹_132" data-name="그룹 132" transform="translate(566.593 229.385)">
        <path id="패스_80" data-name="패스 80" d="M558.4,206.107l-7.941,1.386s.166,10.645,15.109,11.989,24.975-13.545,24.975-13.545l-15.691-1.9Z" transform="translate(-550.454 -204.036)" fill="#ffc1b3"/>
      </g>
      <g id="그룹_133" data-name="그룹 133" transform="translate(595.957 212.063)">
        <path id="패스_81" data-name="패스 81" d="M577.452,199.321c.243,3.905-1.212,7.173-3.249,7.3s-3.886-2.936-4.129-6.84,1.213-7.173,3.249-7.3S577.209,195.417,577.452,199.321Z" transform="translate(-570.047 -192.477)" fill="#92b4ea"/>
      </g>
      <g id="그룹_134" data-name="그룹 134" transform="translate(552.407 255.182)">
        <path id="패스_82" data-name="패스 82" d="M548.277,251.351a.749.749,0,0,1-.546-.235c-13.776-14.606-2.2-29.44-2.08-29.588a.75.75,0,0,1,1.17.937c-.45.564-10.87,13.978,2,27.623a.747.747,0,0,1-.031,1.058A.737.737,0,0,1,548.277,251.351Z" transform="translate(-540.988 -221.25)" fill="#92b4ea"/>
      </g>
    </g>
  </g>
</svg>
