<svg id="sHP731gZbBZfZQOmIYAFoSiVmwyzPcJuLU2qIliUWFhyWWoqevJARxatci74t5OYNsXtE-lRKNaVHaKpb3aOjnnD8S6g87M_vsDiijWe0CgLbG-uTTNOQkaCO1-HZhxwsTTpIdLzIzD--c6BopNv7A" xmlns="http://www.w3.org/2000/svg" width="26" height="26" viewBox="0 0 26 26">
  <rect id="사각형_25" data-name="사각형 25" width="26" height="26" rx="4" fill="#fd0"/>
  <path id="패스_86" data-name="패스 86" d="M55.86,40.992c-4.931,0-8.929,3.7-8.929,8.259a7.223,7.223,0,0,0,3.343,6.443l.009,0v3.953a.227.227,0,0,0,.362.182l3.386-2.515.073.032a9.674,9.674,0,0,0,1.755.16c4.931,0,8.929-3.7,8.929-8.259s-4-8.259-8.929-8.259M52.867,51.344a1.865,1.865,0,0,0,1.849-1.333H56.01a3.1,3.1,0,0,1-3.144,2.579,3.348,3.348,0,1,1,0-6.7A3.1,3.1,0,0,1,56.02,48.52H54.729a1.841,1.841,0,0,0-1.863-1.4,2.021,2.021,0,0,0-2.1,2.12,2.073,2.073,0,0,0,2.1,2.1m8.53,1.117H60.211V49.785a.852.852,0,0,0-.91-.947c-.616,0-1.012.377-1.012,1.14v2.483H57.1V45.915h1.187v2.462a1.522,1.522,0,0,1,1.37-.644,1.629,1.629,0,0,1,1.242.506,1.909,1.909,0,0,1,.5,1.4Z" transform="translate(-42.865 -37.441)" fill="#231815"/>
</svg>
