<svg id="그룹_181" data-name="그룹 181" xmlns="http://www.w3.org/2000/svg" width="14.389" height="14.389" viewBox="0 0 14.389 14.389">
  <path id="패스_99" data-name="패스 99" d="M0,0H14.389V14.389H0Z" fill="none"/>
  <path id="패스_100" data-name="패스 100" d="M18,8a1.8,1.8,0,0,1,0,3.6" transform="translate(-7.208 -3.204)" fill="none" stroke="#fff" stroke-linecap="round" stroke-linejoin="round" stroke-width="1"/>
  <path id="패스_101" data-name="패스 101" d="M8.8,8v6.6a.6.6,0,0,1-.6.6H7.6a.6.6,0,0,1-.6-.6v-3" transform="translate(-2.803 -3.204)" fill="none" stroke="#fff" stroke-linecap="round" stroke-linejoin="round" stroke-width="1"/>
  <path id="패스_102" data-name="패스 102" d="M8.4,6.407h0l2.712-2.26a.54.54,0,0,1,.885.415V11.85a.54.54,0,0,1-.885.415L8.4,10H3.6A.6.6,0,0,1,3,9.4v-2.4a.6.6,0,0,1,.6-.6H8.4" transform="translate(-1.201 -1.61)" fill="none" stroke="#fff" stroke-linecap="round" stroke-linejoin="round" stroke-width="1"/>
</svg>
