<svg xmlns="http://www.w3.org/2000/svg" width="26.13" height="27.634" viewBox="0 0 26.13 27.634">
  <path id="패스_86" data-name="패스 86" d="M60,40.992c-7.215,0-13.065,5.411-13.065,12.085,0,4.929,2.065,7.282,4.892,9.427l.014.006v5.785a.332.332,0,0,0,.53.266l4.954-3.68.107.046A14.154,14.154,0,0,0,60,65.161c7.216,0,13.065-5.411,13.065-12.085S67.212,40.992,60,40.992m-4.38,15.147a2.729,2.729,0,0,0,2.705-1.951h1.894a4.533,4.533,0,0,1-4.6,3.773,4.9,4.9,0,1,1,0-9.8,4.538,4.538,0,0,1,4.614,3.842H58.342a2.694,2.694,0,0,0-2.725-2.046,2.957,2.957,0,0,0-3.074,3.1,3.033,3.033,0,0,0,3.074,3.076M68.1,57.773H66.362V53.857a1.246,1.246,0,0,0-1.332-1.386c-.9,0-1.48.552-1.48,1.669v3.634H61.813V48.2h1.737v3.6a2.226,2.226,0,0,1,2-.942,2.384,2.384,0,0,1,1.817.74,2.794,2.794,0,0,1,.727,2.046Z" transform="translate(-46.931 -40.992)" fill="#231815"/>
</svg>
